<svg width="24" xmlns="http://www.w3.org/2000/svg" height="24" fill="none"><g data-testid="twitter"><g class="fills"><rect rx="0" ry="0" width="64" height="64" class="frame-background"/></g><g data-testid="svg-path" class="frame-children"><path d="M21 6.172a25.39 25.39 0 0 0-3.041-.273 3.655 3.655 0 0 0-6.21 3.341c-3.03-.154-5.325-1.71-7.47-4.024-.293.57-.848 2.389-.416 3.702a7.161 7.161 0 0 0 2.531 3.221 9.762 9.762 0 0 1-3.195-.694c.528 1.736 2.343 4.256 5.197 4.65a7.295 7.295 0 0 1-4.526 1.571 7.22 7.22 0 0 1-.87-.041 10.274 10.274 0 0 0 5.587 1.646c6.702 0 10.369-5.583 10.369-10.429v-.476Z" style="fill: none;" class="fills"/><g class="strokes"><g class="inner-stroke-shape"><defs><clipPath id="d"><use href="#c"/></clipPath><path d="M21 6.172a25.39 25.39 0 0 0-3.041-.273 3.655 3.655 0 0 0-6.21 3.341c-3.03-.154-5.325-1.71-7.47-4.024-.293.57-.848 2.389-.416 3.702a7.161 7.161 0 0 0 2.531 3.221 9.762 9.762 0 0 1-3.195-.694c.528 1.736 2.343 4.256 5.197 4.65a7.295 7.295 0 0 1-4.526 1.571 7.22 7.22 0 0 1-.87-.041 10.274 10.274 0 0 0 5.587 1.646c6.702 0 10.369-5.583 10.369-10.429v-.476Z" id="c" style="fill: none; stroke-width: 2; stroke: rgb(255, 255, 255); stroke-opacity: 0.6;"/></defs><use href="#c" clip-path="url('#d')"/></g></g></g></g></svg>