<svg width="1421" xmlns="http://www.w3.org/2000/svg" height="1233" fill="none"><g data-testid="Group"><g data-testid="Group"><path d="M1341.01 8v1080m-114-1080v1080m-113-1080v1080m-114-1080v1080M546.01 8v1080m341-1080v1080M773.01 8v1080M432.01 8v1080M319.01 8v1080m340-1080v1080M205.01 8v1080" class="fills"/><g class="strokes"><path d="M1341.01 8v1080m-114-1080v1080m-113-1080v1080m-114-1080v1080M546.01 8v1080m341-1080v1080M773.01 8v1080M432.01 8v1080M319.01 8v1080m340-1080v1080M205.01 8v1080" style="fill: none; stroke-width: 1; stroke: rgb(255, 255, 255); stroke-opacity: 0.2;" class="stroke-shape"/></g></g><g data-testid="Group"><path d="M1409 1197H29m1380-113.999H29m1380-112.999H29m1380-113.999H29m1380-453.996H29m1380 340.997H29m1380-113.999H29m1380-340.997H29m1380-112.999H29m1380 339.997H29M1409 61.01H29" class="fills"/><g class="strokes"><path d="M1409 1197H29m1380-113.999H29m1380-112.999H29m1380-113.999H29m1380-453.996H29m1380 340.997H29m1380-113.999H29m1380-340.997H29m1380-112.999H29m1380 339.997H29M1409 61.01H29" style="fill: none; stroke-width: 1; stroke: rgb(255, 255, 255); stroke-opacity: 0.2;" class="stroke-shape"/></g></g><g data-testid="Rectangle"><defs><linearGradient id="a" x1=".222" y1=".444" x2="1.271" y2=".449"><stop offset="0" stop-color="#111218"/><stop offset="1" stop-color="#111218" stop-opacity="0"/></linearGradient><pattern patternUnits="userSpaceOnUse" x="0" y="8" width="1088" height="1225" id="b"><rect width="1088" height="1225" style="fill: url(&quot;#a&quot;);"/></pattern></defs><path d="M0 8h1088v1225H0V8Z" fill="url(#b)" class="fills"/></g><g data-testid="Rectangle"><defs><linearGradient id="c" x1=".222" y1=".444" x2="1.271" y2=".449"><stop offset="0" stop-color="#111218"/><stop offset="1" stop-color="#111218" stop-opacity="0"/></linearGradient><pattern patternUnits="userSpaceOnUse" x="264.5" y="76.5" width="1233" height="1080" patternTransform="rotate(-90 881 616.5)" id="d"><rect width="1233" height="1080" style="fill: url(&quot;#c&quot;);"/></pattern></defs><path d="M341 1233V0h1080v1233H341Z" fill="url(#d)" class="fills"/></g></g></svg>