<svg width="32" xmlns="http://www.w3.org/2000/svg" height="32" fill="none">
    <rect rx="0" ry="0" width="64" height="64"/>
    <path d="M26.63 27.31a2.043 2.043 0 0 0 1.255-2.61l-.68-1.935A2.052 2.052 0 0 0 24.59 21.5c-3.865 1.355-5.225-2.5-5.905-4.44-.68-1.94-2.035-5.785 1.815-7.145a2.05 2.05 0 0 0 1.255-2.61l-.68-1.935A2.05 2.05 0 0 0 18.5 4.115c-4.83 1.7-7.05 4.65-3.655 14.315S21.8 29 26.63 27.31Zm-9.225-3.22A2 2 0 0 0 16 26a2 2 0 1 1-4 0 2 2 0 1 0-4 0 2 2 0 1 1-4 0" />
    <path
        d="M26.63 27.31a2.043 2.043 0 0 0 1.255-2.61l-.68-1.935A2.052 2.052 0 0 0 24.59 21.5c-3.865 1.355-5.225-2.5-5.905-4.44-.68-1.94-2.035-5.785 1.815-7.145a2.05 2.05 0 0 0 1.255-2.61l-.68-1.935A2.05 2.05 0 0 0 18.5 4.115c-4.83 1.7-7.05 4.65-3.655 14.315S21.8 29 26.63 27.31Zm-9.225-3.22A2 2 0 0 0 16 26a2 2 0 1 1-4 0 2 2 0 1 0-4 0 2 2 0 1 1-4 0"
        style="fill: none; stroke-width: 1; stroke: currentColor; stroke-opacity: 1;" />
</svg>