<svg width="32" xmlns="http://www.w3.org/2000/svg" height="32" fill="none">
    <rect rx="0" ry="0" width="64" height="64" />
    <path d="M22.3 25.075V16.41a1.031 1.031 0 0 0-.58-.91l-10.5-5.17a1.05 1.05 0 0 0-1.5.925v6.58M18.1 28v-5.39a1.034 1.034 0 0 0-.6-.925L7 16.5a1.052 1.052 0 0 0-1.5.92v3.895c.002.394.227.752.58.925l11.42 5.65c.356.176.78.139 1.1-.095l7.46-5.5c.274-.192.438-.505.44-.84v-11.25a1.036 1.036 0 0 0-.58-.925l-10.5-5.17a1.05 1.05 0 0 0-1.5.925v6.6" />
    <path d="M22.3 25.075V16.41a1.031 1.031 0 0 0-.58-.91l-10.5-5.17a1.05 1.05 0 0 0-1.5.925v6.58M18.1 28v-5.39a1.034 1.034 0 0 0-.6-.925L7 16.5a1.052 1.052 0 0 0-1.5.92v3.895c.002.394.227.752.58.925l11.42 5.65c.356.176.78.139 1.1-.095l7.46-5.5c.274-.192.438-.505.44-.84v-11.25a1.036 1.036 0 0 0-.58-.925l-10.5-5.17a1.05 1.05 0 0 0-1.5.925v6.6"
        style="fill: none; stroke-width: 1; stroke: currentColor; stroke-opacity: 1;" />
</svg>