<svg width="30" xmlns="http://www.w3.org/2000/svg" height="30" fill="none">
    <rect rx="0" ry="0" width="64" height="64" />
    <path d="M15 3.75V7.5m0 18.75V22.5M26.25 15H22.5M3.75 15H7.5m15.455-7.955-2.653 2.653M7.045 22.955l2.653-2.653m13.257 2.653-2.653-2.653M7.045 7.045l2.653 2.653M15 11.25c2.07 0 3.75 1.68 3.75 3.75 0 2.07-1.68 3.75-3.75 3.75-2.07 0-3.75-1.68-3.75-3.75 0-2.07 1.68-3.75 3.75-3.75Z" />
    <path
        d="M15 3.75V7.5m0 18.75V22.5M26.25 15H22.5M3.75 15H7.5m15.455-7.955-2.653 2.653M7.045 22.955l2.653-2.653m13.257 2.653-2.653-2.653M7.045 7.045l2.653 2.653M15 11.25c2.07 0 3.75 1.68 3.75 3.75 0 2.07-1.68 3.75-3.75 3.75-2.07 0-3.75-1.68-3.75-3.75 0-2.07 1.68-3.75 3.75-3.75Z"
        style="fill: none; stroke-width: 1; stroke: currentColor; stroke-opacity: 1;" />
</svg>